Simulation
nRows=49
nColumns=15
endheader
time  TH_x TH_y TH_z SC_y  SC_z  SC_x  AC_y  AC_z  AC_x  GH_y  GH_z  GH_yy  EL_x  PS_y
1.55  0.000000  0.000000  0.000000  -33.17128403538443  7.831406087747685  21.935390697281733  51.83413274097009  8.898605313410986  -3.7812199743298907  23.101320420358398  56.051821606968424  -19.0776319462923  17.95334039038853  0.000000
1.581  0.000000  0.000000  0.000000  -33.486584756627074  8.109838393290135  22.544254127515984  51.7836639332089  8.971383093839048  -3.559592858177811  22.922892566504803  56.51334036008383  -19.10740409135173  17.92771487653462  0.000000
1.612  0.000000  0.000000  0.000000  -33.77867384817303  8.351256907662483  23.068997987308112  51.7588586046098  9.021953589729598  -3.343326260951218  22.738568505067498  56.92973709546044  -19.107258241220613  17.912495423561555  0.000000
1.643  0.000000  0.000000  0.000000  -34.04379431593896  8.54890257655368  23.508208637682678  51.76009172807586  9.05585413916307  -3.144582818426747  22.557085496764053  57.29022131249095  -19.090434117250563  17.912121144334513  0.000000
1.674  0.000000  0.000000  0.000000  -34.28043206677256  8.70177806190994  23.864836368961857  51.78057487876979  9.078798134520635  -2.973897876004158  22.398703653613737  57.576922691374676  -19.072393584404633  17.92632659574891  0.000000
1.705  0.000000  0.000000  0.000000  -34.49009401255473  8.81381611525771  24.14586069859398  51.809871967926625  9.094045196849525  -2.8390785866693076  22.28685191147946  57.77059808875904  -19.062781140263322  17.950917594920313  0.000000
1.736  0.000000  0.000000  0.000000  -34.6698583507154  8.889505729937328  24.355156199875246  51.837891616754916  9.101447935413269  -2.74731323716719  22.239402162380838  57.85698126026651  -19.066460989426382  17.98060577444892  0.000000
1.767  0.000000  0.000000  0.000000  -34.81282664857258  8.931341871881779  24.493994129089373  51.85787259888453  9.097250275003427  -2.706089422280404  22.263241871080435  57.830861001320486  -19.084715317036608  18.010795059518994  0.000000
1.798  0.000000  0.000000  0.000000  -34.90564621392771  8.93918810014914  24.55762171901371  51.866433432301235  9.075885223393364  -2.722120059429115  22.355722730265626  57.69471008581677  -19.119996508872802  18.03798200444289  0.000000
1.829  0.000000  0.000000  0.000000  -34.93710282653682  8.911689647077809  24.54071980179376  51.86423194029994  9.032250895963363  -2.7987951753096083  22.509085213687566  57.454641107222294  -19.178222259626864  18.059815427605454  0.000000
1.8599999999999999  0.000000  0.000000  0.000000  -34.89927733240012  8.84446230433588  24.438483890323745  51.85716478936805  8.9640233933709  -2.935508795170165  22.713968135011445  57.115773108882166  -19.27268916881826  18.075100122872016  0.000000
1.891  0.000000  0.000000  0.000000  -34.793544469007195  8.731811074124973  24.25133406395589  51.856365637021426  8.870975602002257  -3.127083727341129  22.96084592969915  56.681550212646336  -19.420408955219127  18.08362569146115  0.000000
1.922  0.000000  0.000000  0.000000  -34.62584246586084  8.568927179244756  23.980342937014054  51.874603876195714  8.752373174833163  -3.3648192555283845  23.24003627040218  56.15630441872859  -19.635458366597174  18.08668715469987  0.000000
1.953  0.000000  0.000000  0.000000  -34.40782605620735  8.355082446654533  23.62719147728657  51.921323942825225  8.605746966253358  -3.6373519660244287  23.541931609158762  55.548033458263184  -19.91712648036851  18.08828340509996  0.000000
1.984  0.000000  0.000000  0.000000  -34.15079679524395  8.093703496288818  23.189734290979374  51.99840591286319  8.427756819131707  -3.932774617530665  23.85723812666214  54.86860284370628  -20.24615464163002  18.096686112476657  0.000000
2.015  0.000000  0.000000  0.000000  -33.868158396742096  7.792266177658893  22.667154087610747  52.10037269259556  8.215807681131515  -4.238626772417429  24.177928876398283  54.13029015447571  -20.589773697112808  18.122258655538865  0.000000
2.046  0.000000  0.000000  0.000000  -33.56901045491611  7.456733356094216  22.059326184144936  52.217545948307794  7.971277874369454  -4.544470855109875  24.497255649143227  53.34366957500401  -20.914863251975262  18.17278410232131  0.000000
2.077  0.000000  0.000000  0.000000  -33.26229086409218  7.090778225283565  21.371604184579994  52.3401114175263  7.699689679817423  -4.841648297531152  24.810626891205096  52.51567388926621  -21.19822983178699  18.250361915448277  0.000000
2.108  0.000000  0.000000  0.000000  -32.95424352689004  6.695904812349429  20.61160250204965  52.460103867239916  7.408742087024778  -5.124022866908063  25.116220749988994  51.65097878658793  -21.43179818618977  18.35099756398991  0.000000
2.139  0.000000  0.000000  0.000000  -32.65184682861197  6.272812927759509  19.79093456025281  52.57153601504128  7.106676797308629  -5.387581388096839  25.413408991614915  50.75277580530822  -21.616928189046096  18.46744625320493  0.000000
2.17  0.000000  0.000000  0.000000  -32.35899082186583  5.822820212681147  18.91993728293162  52.66897476859205  6.800553024647371  -5.630501418698404  25.701738195977306  49.82458505030564  -21.75913106158379  18.592023430864636  0.000000
2.201  0.000000  0.000000  0.000000  -32.079944602404375  5.348822094116979  18.00928215440461  52.74738138447796  6.495907283059217  -5.851926168434197  25.97970173892784  48.869930960249604  -21.86215767666832  18.718249876894422  0.000000
2.232  0.000000  0.000000  0.000000  -31.814835555167893  4.854837317125633  17.066781012255117  52.80145506043123  6.197605867274737  -6.051614794329948  26.245808469521876  47.89196882436435  -21.928497662691942  18.840495675688302  0.000000
2.263  0.000000  0.000000  0.000000  -31.563144912385777  4.34582523078312  16.100525837852185  52.826638380018366  5.9104251439001585  -6.229184660215837  26.498427974962926  46.89261394725848  -21.95810774358765  18.954101407451788  0.000000
2.294  0.000000  0.000000  0.000000  -31.322708858274698  3.8271860271083367  15.117907857788929  52.81956317594998  5.6398747217599405  -6.384299795869092  26.737935270633006  45.871629458427215  -21.950305762430936  19.056125398307262  0.000000
2.325  0.000000  0.000000  0.000000  -31.094633460496933  3.3060355006832345  14.128293612810914  52.77959163732623  5.3910654047093045  -6.515997069255078  26.96546075572623  44.82707693748416  -21.90293021639897  19.14561549526665  0.000000
2.356  0.000000  0.000000  0.000000  -30.878672363402963  2.788983035026853  13.142322866996377  52.70924419910352  5.168066458966623  -6.624428618505109  27.182462324283517  43.75538686939534  -21.814931189282568  19.22207780837026  0.000000
2.387  0.000000  0.000000  0.000000  -30.67521368420511  2.2829112259634425  12.170459155828523  52.61182639622466  4.97207204541889  -6.709560726313637  27.389498564175124  42.65353589849512  -21.685341035568328  19.286690017476527  0.000000
2.418  0.000000  0.000000  0.000000  -30.482134560293634  1.7952234508423175  11.219713427996584  52.489805129078846  4.802697232897711  -6.7714498733872395  27.589472282283168  41.518497550855855  -21.518499256588438  19.342201093551648  0.000000
2.449  0.000000  0.000000  0.000000  -30.29837020315191  1.3320440221942769  10.29501535960558  52.3455251165385  4.658389003035489  -6.809686931681552  27.784713462819415  40.34880565546267  -21.321019894204973  19.391745408280045  0.000000
2.48  0.000000  0.000000  0.000000  -30.121626318780326  0.8979186469716093  9.399832764521184  52.18204018086004  4.53900977819275  -6.824890341703965  27.979889940918167  39.14239157878447  -21.103959659976233  19.43810138991337  0.000000
2.511  0.000000  0.000000  0.000000  -29.952152197886306  0.49490521374483853  8.537731415623194  52.00414256655642  4.4449272215299445  -6.818267008899601  28.179451233717156  37.898764478432014  -20.880044533248604  19.48249681896713  0.000000
2.542  0.000000  0.000000  0.000000  -29.790745968425032  0.12277981366598267  7.7129082589601206  51.81760307977601  4.377595515412981  -6.792565442973844  28.39091228999722  36.61751908179794  -20.664905134121554  19.52578949823743  0.000000
2.573  0.000000  0.000000  0.000000  -29.63969059096957  -0.21831780650568972  6.929439400672469  51.628358868786236  4.3365502923986385  -6.750188239129148  28.620272102509176  35.300567508911705  -20.470690927302503  19.567475638829666  0.000000
2.604  0.000000  0.000000  0.000000  -29.498769922867016  -0.526384635184859  6.190967827600338  51.43986193142697  4.319639121024489  -6.692699655203484  28.873049677605007  33.94967758142926  -20.303636769452027  19.608344136743735  0.000000
2.635  0.000000  0.000000  0.000000  -29.366695475127546  -0.7978111467328406  5.498868650501458  51.254482716591454  4.321990725195295  -6.620149776794616  29.149483327976792  32.56973345367786  -20.159609347048033  19.647272102659837  0.000000
2.666  0.000000  0.000000  0.000000  -29.239583990188322  -1.0292999040390123  4.85529558188275  51.07105250828187  4.337206597936666  -6.533130694425228  29.447369087832524  31.165824194259645  -20.028273469800656  19.68631577880918  0.000000
2.697  0.000000  0.000000  0.000000  -29.115627196494987  -1.2193737665660638  4.261070824942991  50.891481364646076  4.3588100538833245  -6.434024247013206  29.763426174798994  29.747470205985625  -19.89729042055403  19.724783596256906  0.000000
2.7279999999999998  0.000000  0.000000  0.000000  -28.994372011341365  -1.3703657543934604  3.7156518907625857  50.71425076026032  4.383605217667735  -6.325398425627313  30.09634005931668  28.325032421020293  -19.758584616381253  19.76771778237594  0.000000
2.759  0.000000  0.000000  0.000000  -28.878927109411343  -1.4876926220224358  3.216049143560149  50.543436914525685  4.411700500374753  -6.212112946270532  30.443778819976153  26.91288934318669  -19.604331017955836  19.816783033443706  0.000000
2.79  0.000000  0.000000  0.000000  -28.770235992477655  -1.5764675972907143  2.762202591691751  50.3763265140546  4.4430194735333455  -6.098026303627632  30.801236445290385  25.521488016696548  -19.42829590052683  19.881127405054382  0.000000
2.821  0.000000  0.000000  0.000000  -28.668626904666432  -1.6398309694123816  2.353779803342287  50.218040018563606  4.479561556621875  -5.987965787091427  31.159710518890503  24.159845578029717  -19.21603792404375  19.96626033768403  0.000000
2.852  0.000000  0.000000  0.000000  -28.566793986261818  -1.6784507816798313  1.9955536862874559  50.063274660239415  4.521020998485021  -5.885505865901741  31.50589433897806  22.82826371063785  -18.954175603547828  20.08789328466977  0.000000
2.883  0.000000  0.000000  0.000000  -28.461105328579755  -1.6931648549827454  1.6909042078081555  49.918904295214716  4.568888564076641  -5.795065890121183  31.826033689689847  21.526833838318012  -18.621019887932547  20.253882798875146  0.000000
2.914  0.000000  0.000000  0.000000  -28.340106727948804  -1.6863328384176604  1.4448319020265485  49.77959713760346  4.620881529419934  -5.722659218251405  32.11451786187109  20.250773038795867  -18.216479904027818  20.47629458279203  0.000000
2.945  0.000000  0.000000  0.000000  -28.20823629724129  -1.6669341043950365  1.254856140564073  49.654283485907136  4.6753723750055896  -5.670213432417116  32.37383253907845  18.999994125648474  -17.736749598002927  20.752804138073653  0.000000
2.976  0.000000  0.000000  0.000000  -28.05061974656764  -1.648129702115457  1.1130077139167123  49.540724199735024  4.723753994077497  -5.64745073950159  32.63182109983343  17.771710708657736  -17.227975545184144  21.081162072997543  0.000000
3.007  0.000000  0.000000  0.000000  -27.89288708577202  -1.656051100253575  0.9992341267682366  49.44326061362559  4.749768504309668  -5.648005065656641  32.91939582498107  16.5729749711415  -16.725686843486333  21.45090757418747  0.000000
3.038  0.000000  0.000000  0.000000  -27.693865606740083  -1.7127819969246982  0.8749195388469694  49.361572766664764  4.725571083545191  -5.686146331695264  33.29857739575115  15.405282455858416  -16.334495899984674  21.847091976503076  0.000000
